<?xml version="1.0" encoding="utf-8"?>
<!-- Generator: Adobe Illustrator 27.5.0, SVG Export Plug-In . SVG Version: 6.00 Build 0)  -->
<svg version="1.1" xmlns="http://www.w3.org/2000/svg" xmlns:xlink="http://www.w3.org/1999/xlink" x="0px" y="0px"
	 viewBox="0 0 750 500" style="enable-background:new 0 0 750 500;" xml:space="preserve">
<g id="Background_complete">
	<g>
		<g>
			<g>
				<g>
					<g>
						<g>
							<path style="fill:#E0E0E0;" d="M673.734,319.613H492.988c-3.232,0-5.862-2.63-5.862-5.862V50.478
								c0-3.232,2.63-5.862,5.862-5.862h180.746c3.232,0,5.862,2.629,5.862,5.862v263.273
								C679.596,316.983,676.966,319.613,673.734,319.613z M492.988,44.866c-3.095,0-5.612,2.518-5.612,5.612v263.273
								c0,3.095,2.518,5.612,5.612,5.612h180.746c3.095,0,5.612-2.518,5.612-5.612V50.478c0-3.094-2.518-5.612-5.612-5.612H492.988z
								"/>
						</g>
					</g>
					<g>
						<g>
							<path style="fill:#E0E0E0;" d="M465.306,319.613H284.56c-3.232,0-5.862-2.63-5.862-5.862V50.478
								c0-3.232,2.629-5.862,5.862-5.862h180.747c3.232,0,5.862,2.629,5.862,5.862v263.273
								C471.168,316.983,468.538,319.613,465.306,319.613z M284.56,44.866c-3.094,0-5.612,2.518-5.612,5.612v263.273
								c0,3.095,2.518,5.612,5.612,5.612h180.747c3.095,0,5.612-2.518,5.612-5.612V50.478c0-3.094-2.518-5.612-5.612-5.612H284.56z"
								/>
						</g>
					</g>
				</g>
				<g>
					<g>
						<g>
							<path style="fill:#E0E0E0;" d="M257.012,319.613H76.266c-3.232,0-5.862-2.63-5.862-5.862V50.478
								c0-3.232,2.629-5.862,5.862-5.862h180.746c3.232,0,5.862,2.629,5.862,5.862v263.273
								C262.875,316.983,260.245,319.613,257.012,319.613z M76.266,44.866c-3.094,0-5.612,2.518-5.612,5.612v263.273
								c0,3.095,2.518,5.612,5.612,5.612h180.746c3.095,0,5.612-2.518,5.612-5.612V50.478c0-3.094-2.518-5.612-5.612-5.612H76.266z"
								/>
						</g>
					</g>
				</g>
			</g>
			<g>
				<g>
					<rect y="380.683" style="fill:#E0E0E0;" width="750" height="0.12"/>
				</g>
			</g>
		</g>
		<g>
			<rect x="653.626" y="410.059" style="fill:#EBEBEB;" width="55.729" height="0.421"/>
			<rect x="495.044" y="414.624" style="fill:#EBEBEB;" width="14.627" height="0.421"/>
			<rect x="40.645" y="397.261" style="fill:#EBEBEB;" width="72.674" height="0.421"/>
			<rect x="128.299" y="397.261" style="fill:#EBEBEB;" width="10.656" height="0.421"/>
			<rect x="173.586" y="404.366" style="fill:#EBEBEB;" width="157.613" height="0.421"/>
		</g>
	</g>
	<g>
		<path style="fill:#E0E0E0;" d="M82.706,341.945l-11.928,10.966l44.071,47.204c0,0,17.907-14.64,5.369-32.839
			C107.681,349.078,91.423,342.143,82.706,341.945z"/>
		<g>
			<path style="fill:#E0E0E0;" d="M88.101,315.963c2.477,1.694,4.383,4.562,5.617,7.256c1.278,2.79,1.976,5.798,2.029,8.866
				c0.106,6.125-2.648,12.159-7.149,16.268c-2.062,1.883-5.004-1.309-2.938-3.195c3.618-3.304,5.747-8.001,5.753-12.913
				c0.003-2.357-0.524-4.738-1.488-6.887c-0.902-2.012-2.262-4.44-4.125-5.713C83.498,318.071,85.793,314.385,88.101,315.963
				L88.101,315.963z"/>
		</g>
		<g>
			<path style="fill:#E0E0E0;" d="M126.122,335.963c-9.32,3.194-16.63,11.115-19.35,20.533c-0.777,2.691-4.925,1.407-4.15-1.276
				c3.184-11.024,11.766-19.795,22.576-23.499c1.118-0.383,2.342,0.612,2.583,1.659
				C128.069,334.629,127.225,335.585,126.122,335.963L126.122,335.963z"/>
		</g>
		<g>
			<path style="fill:#E0E0E0;" d="M138.758,366.574c-8.386-3.407-17.976-2.875-25.898,1.524c-2.441,1.356-4.429-2.505-1.984-3.862
				c8.813-4.894,19.809-5.61,29.158-1.812c1.085,0.441,1.802,1.524,1.437,2.713C141.15,366.183,139.849,367.017,138.758,366.574
				L138.758,366.574z"/>
		</g>
		<path style="fill:#E0E0E0;" d="M55.717,366.76l11.928-10.966l43.344,47.872c0,0-16.089,16.617-33.173,2.598
			C60.732,392.244,55.184,375.462,55.717,366.76z"/>
		<g>
			<path style="fill:#E0E0E0;" d="M33.237,367.974c1.086,1.915,3.322,3.449,5.198,4.507c2.103,1.186,4.48,1.942,6.888,2.142
				c4.895,0.406,9.754-1.321,13.349-4.65c2.05-1.898,4.991,1.295,2.938,3.196c-4.472,4.14-10.716,6.379-16.81,5.76
				c-3.051-0.31-5.996-1.255-8.665-2.765c-2.581-1.461-5.278-3.593-6.76-6.206C27.997,367.529,31.858,365.543,33.237,367.974
				L33.237,367.974z"/>
		</g>
		<g>
			<path style="fill:#E0E0E0;" d="M41.967,408.245c4.597-10.46,14.056-18.278,25.308-20.527c2.736-0.547,3.674,3.693,0.924,4.242
				c-9.613,1.921-18.119,8.542-22.083,17.561c-0.475,1.081-1.498,1.796-2.713,1.437C42.38,410.655,41.496,409.316,41.967,408.245
				L41.967,408.245z"/>
		</g>
		<g>
			<path style="fill:#E0E0E0;" d="M71.319,425.603c-3.001-9.634-1.366-20.532,4.249-28.904c1.556-2.319,5.241-0.022,3.683,2.3
				c-5.048,7.525-6.382,17.037-3.69,25.679c0.349,1.119-0.585,2.35-1.659,2.583C72.674,427.529,71.669,426.726,71.319,425.603
				L71.319,425.603z"/>
		</g>
		<path style="fill:#E0E0E0;" d="M79.698,340.147c0.159,0.354-12.392-10.39-23.049-0.592c-10.657,9.798-2.595,24.178-2.595,24.178
			L79.698,340.147z"/>
	</g>
	<g>
		<path style="fill:#E0E0E0;" d="M576.479,78.665c-1.925,2.932-3.22,6.152-3.91,9.474l-5.29,0.498l0,10.245l5.291,0.499
			c0.689,3.321,1.984,6.541,3.909,9.474l-3.379,4.081l7.245,7.245l4.081-3.379c2.932,1.925,6.153,3.22,9.474,3.909l0.498,5.291
			l10.245-0.001l0.498-5.29c3.322-0.69,6.542-1.985,9.474-3.91l4.081,3.379l7.245-7.245l-3.379-4.081
			c1.925-2.932,3.22-6.152,3.909-9.474l5.29-0.499l0.001-10.245l-5.29-0.499c-0.69-3.321-1.985-6.541-3.91-9.473l3.379-4.081
			l-7.245-7.245l-4.081,3.379c-2.932-1.925-6.153-3.221-9.474-3.91l-0.499-5.29l-10.245,0l-0.498,5.29
			c-3.321,0.69-6.542,1.984-9.473,3.909l-4.081-3.379l-7.245,7.245L576.479,78.665z M609.233,83.845
			c5.126,5.127,5.127,13.439,0,18.566c-5.127,5.127-13.44,5.126-18.566,0c-5.127-5.127-5.127-13.439,0-18.566
			C595.794,78.718,604.106,78.718,609.233,83.845z"/>
	</g>
	<g>
		<path style="fill:#F0F0F0;" d="M642.888,78.8c-1.138,1.733-1.903,3.636-2.311,5.599l-3.127,0.294l0,6.055l3.127,0.295
			c0.407,1.963,1.173,3.866,2.31,5.599l-1.997,2.412l4.282,4.282l2.412-1.997c1.733,1.138,3.636,1.903,5.599,2.311l0.294,3.127
			l6.055,0l0.295-3.126c1.963-0.408,3.866-1.173,5.599-2.311l2.412,1.997l4.282-4.282l-1.997-2.412
			c1.138-1.733,1.903-3.636,2.31-5.599l3.126-0.295l0-6.055l-3.127-0.295c-0.408-1.963-1.173-3.866-2.311-5.599l1.997-2.412
			l-4.282-4.282l-2.412,1.997c-1.733-1.138-3.636-1.904-5.599-2.311l-0.295-3.127l-6.055,0l-0.294,3.127
			c-1.963,0.408-3.866,1.173-5.599,2.311l-2.412-1.997l-4.282,4.282L642.888,78.8z M662.246,81.862c3.03,3.03,3.03,7.943,0,10.973
			c-3.03,3.03-7.943,3.03-10.973,0c-3.03-3.03-3.03-7.943,0-10.973C654.304,78.831,659.216,78.831,662.246,81.862z"/>
	</g>
	<g>
		<path style="fill:#F0F0F0;" d="M85.521,132.23c-1.138,1.733-1.903,3.636-2.311,5.599l-3.127,0.294l0,6.055l3.127,0.295
			c0.407,1.963,1.173,3.866,2.311,5.599l-1.997,2.412l4.282,4.282l2.412-1.997c1.733,1.138,3.636,1.903,5.599,2.311l0.294,3.127
			l6.055,0l0.295-3.126c1.963-0.408,3.866-1.173,5.599-2.311l2.412,1.997l4.282-4.282l-1.997-2.412
			c1.138-1.733,1.903-3.636,2.31-5.599l3.126-0.295l0-6.055l-3.127-0.295c-0.408-1.963-1.173-3.866-2.311-5.599l1.997-2.412
			l-4.282-4.282l-2.412,1.997c-1.733-1.138-3.636-1.904-5.599-2.311l-0.295-3.127l-6.055,0l-0.294,3.127
			c-1.963,0.408-3.866,1.173-5.599,2.311l-2.412-1.997l-4.282,4.282L85.521,132.23z M104.88,135.292c3.03,3.03,3.03,7.943,0,10.973
			c-3.03,3.03-7.943,3.03-10.973,0c-3.03-3.03-3.03-7.943,0-10.973C96.937,132.262,101.85,132.262,104.88,135.292z"/>
	</g>
	<g>
		<path style="fill:#F0F0F0;" d="M162.378,406.13c-1.933,2.944-3.234,6.178-3.926,9.514l-5.313,0.5l0,10.289l5.314,0.501
			c0.692,3.335,1.993,6.569,3.926,9.514l-3.394,4.099l7.276,7.275l4.099-3.393c2.945,1.933,6.179,3.234,9.514,3.926l0.5,5.313
			l10.289-0.001l0.501-5.313c3.336-0.693,6.57-1.993,9.514-3.926l4.099,3.393l7.276-7.276l-3.393-4.099
			c1.933-2.945,3.234-6.179,3.926-9.514l5.313-0.501l0.001-10.289l-5.313-0.501c-0.693-3.335-1.993-6.569-3.927-9.514l3.393-4.099
			l-7.276-7.276l-4.099,3.393c-2.945-1.933-6.179-3.234-9.514-3.927l-0.501-5.313l-10.289,0.001l-0.5,5.313
			c-3.335,0.692-6.57,1.993-9.514,3.926l-4.099-3.393l-7.276,7.276L162.378,406.13z M195.272,411.332
			c5.148,5.148,5.149,13.497,0,18.646c-5.149,5.149-13.497,5.148-18.646,0c-5.149-5.149-5.149-13.497,0-18.646
			C181.776,406.184,190.123,406.184,195.272,411.332z"/>
	</g>
</g>
<g id="Background_simple" style="display:none;">
	<g style="display:inline;">
		<path style="fill:#407BFF;" d="M248.9,44.139c-40.997,3.744-80.53,11.716-115.592,24.219
			c-41.324,14.737-83.548,37.695-71.077,67.724c23.024,55.438,133.474,56.448,111.421,93.724
			c-24.98,42.223-8.228,91.75,103.86,105.523c212.895,26.16,470.253-126.905,397.971-211.012
			C630.483,71.955,466.584,24.259,248.9,44.139z"/>
		<path style="opacity:0.9;fill:#FFFFFF;" d="M248.9,44.139c-40.997,3.744-80.53,11.716-115.592,24.219
			c-41.324,14.737-83.548,37.695-71.077,67.724c23.024,55.438,133.474,56.448,111.421,93.724
			c-24.98,42.223-8.228,91.75,103.86,105.523c212.895,26.16,470.253-126.905,397.971-211.012
			C630.483,71.955,466.584,24.259,248.9,44.139z"/>
	</g>
</g>
<g id="Shadow">
	<g>
		<g>
			<ellipse style="fill:#F5F5F5;" cx="372.69" cy="466.2" rx="285.376" ry="5.907"/>
		</g>
	</g>
</g>
<g id="Gears">
	<g>
		<path style="fill:#407BFF;" d="M474.597,404.293c-1.012,2.947-1.419,6.003-1.282,9.014l-4.444,1.592l2.252,8.818l4.664-0.734
			c1.323,2.707,3.146,5.194,5.448,7.294l-2.011,4.256l7.828,4.643l2.77-3.805c2.947,1.012,6.004,1.419,9.014,1.282l1.592,4.444
			l8.818-2.253l-0.734-4.663c2.707-1.324,5.194-3.147,7.295-5.448l4.256,2.011l4.643-7.829l-3.805-2.77
			c1.012-2.947,1.419-6.003,1.282-9.014l4.443-1.592l-2.252-8.818l-4.663,0.734c-1.324-2.707-3.147-5.194-5.448-7.294l2.011-4.256
			l-7.828-4.643l-2.77,3.806c-2.947-1.012-6.004-1.42-9.014-1.283l-1.592-4.444l-8.818,2.253l0.734,4.663
			c-2.707,1.324-5.194,3.146-7.294,5.448l-4.256-2.011l-4.643,7.829L474.597,404.293z M503.79,402.033
			c5.626,3.337,7.482,10.603,4.145,16.229c-3.337,5.626-10.604,7.482-16.229,4.146c-5.627-3.337-7.482-10.603-4.145-16.229
			C490.898,400.552,498.164,398.696,503.79,402.033z"/>
		<path style="opacity:0.4;fill:#FFFFFF;" d="M474.597,404.293c-1.012,2.947-1.419,6.003-1.282,9.014l-4.444,1.592l2.252,8.818
			l4.664-0.734c1.323,2.707,3.146,5.194,5.448,7.294l-2.011,4.256l7.828,4.643l2.77-3.805c2.947,1.012,6.004,1.419,9.014,1.282
			l1.592,4.444l8.818-2.253l-0.734-4.663c2.707-1.324,5.194-3.147,7.295-5.448l4.256,2.011l4.643-7.829l-3.805-2.77
			c1.012-2.947,1.419-6.003,1.282-9.014l4.443-1.592l-2.252-8.818l-4.663,0.734c-1.324-2.707-3.147-5.194-5.448-7.294l2.011-4.256
			l-7.828-4.643l-2.77,3.806c-2.947-1.012-6.004-1.42-9.014-1.283l-1.592-4.444l-8.818,2.253l0.734,4.663
			c-2.707,1.324-5.194,3.146-7.294,5.448l-4.256-2.011l-4.643,7.829L474.597,404.293z M503.79,402.033
			c5.626,3.337,7.482,10.603,4.145,16.229c-3.337,5.626-10.604,7.482-16.229,4.146c-5.627-3.337-7.482-10.603-4.145-16.229
			C490.898,400.552,498.164,398.696,503.79,402.033z"/>
	</g>
	<g>
		<path style="fill:#407BFF;" d="M534.095,425.883c-0.606,1.764-0.849,3.593-0.768,5.395l-2.66,0.953l1.348,5.278l2.791-0.44
			c0.792,1.62,1.883,3.109,3.261,4.366l-1.204,2.547l4.686,2.779l1.658-2.278c1.764,0.606,3.593,0.849,5.395,0.767l0.953,2.66
			l5.278-1.349l-0.439-2.791c1.62-0.793,3.109-1.883,4.366-3.261l2.547,1.203l2.779-4.686l-2.278-1.658
			c0.606-1.764,0.849-3.593,0.767-5.395l2.659-0.953l-1.348-5.278l-2.791,0.439c-0.792-1.62-1.883-3.109-3.261-4.366l1.204-2.547
			l-4.686-2.779l-1.658,2.278c-1.764-0.606-3.594-0.849-5.395-0.768l-0.953-2.66l-5.278,1.348l0.44,2.791
			c-1.62,0.792-3.109,1.883-4.366,3.26l-2.547-1.204l-2.779,4.686L534.095,425.883z M551.568,424.53
			c3.367,1.997,4.478,6.346,2.481,9.714c-1.997,3.368-6.346,4.478-9.714,2.481c-3.368-1.997-4.478-6.346-2.481-9.714
			C543.852,423.644,548.201,422.533,551.568,424.53z"/>
		<path style="opacity:0.7;fill:#FFFFFF;" d="M534.095,425.883c-0.606,1.764-0.849,3.593-0.768,5.395l-2.66,0.953l1.348,5.278
			l2.791-0.44c0.792,1.62,1.883,3.109,3.261,4.366l-1.204,2.547l4.686,2.779l1.658-2.278c1.764,0.606,3.593,0.849,5.395,0.767
			l0.953,2.66l5.278-1.349l-0.439-2.791c1.62-0.793,3.109-1.883,4.366-3.261l2.547,1.203l2.779-4.686l-2.278-1.658
			c0.606-1.764,0.849-3.593,0.767-5.395l2.659-0.953l-1.348-5.278l-2.791,0.439c-0.792-1.62-1.883-3.109-3.261-4.366l1.204-2.547
			l-4.686-2.779l-1.658,2.278c-1.764-0.606-3.594-0.849-5.395-0.768l-0.953-2.66l-5.278,1.348l0.44,2.791
			c-1.62,0.792-3.109,1.883-4.366,3.26l-2.547-1.204l-2.779,4.686L534.095,425.883z M551.568,424.53
			c3.367,1.997,4.478,6.346,2.481,9.714c-1.997,3.368-6.346,4.478-9.714,2.481c-3.368-1.997-4.478-6.346-2.481-9.714
			C543.852,423.644,548.201,422.533,551.568,424.53z"/>
	</g>
	<g>
		<path style="fill:#407BFF;" d="M314.352,76.512c-2.371,3.612-3.966,7.579-4.816,11.671l-6.517,0.613l-0.001,12.621l6.518,0.614
			c0.849,4.09,2.444,8.058,4.816,11.67l-4.162,5.028l8.924,8.924l5.028-4.162c3.612,2.371,7.579,3.966,11.67,4.816l0.614,6.518
			l12.621-0.001l0.614-6.517c4.092-0.85,8.058-2.445,11.671-4.816l5.028,4.162l8.925-8.924l-4.162-5.028
			c2.371-3.612,3.966-7.579,4.816-11.67l6.516-0.614l0.001-12.621l-6.517-0.614c-0.85-4.091-2.445-8.058-4.816-11.67l4.162-5.028
			l-8.924-8.924l-5.028,4.162c-3.612-2.372-7.58-3.967-11.67-4.817l-0.614-6.517l-12.621,0.001l-0.614,6.517
			c-4.091,0.85-8.058,2.444-11.67,4.816l-5.028-4.162l-8.925,8.925L314.352,76.512z M354.351,83.493
			c6.413,6.414,6.414,16.813,0,23.227c-6.415,6.414-16.814,6.414-23.227,0c-6.414-6.414-6.414-16.813,0-23.228
			C337.538,77.08,347.936,77.079,354.351,83.493z"/>
		<path style="opacity:0.4;fill:#FFFFFF;" d="M314.352,76.512c-2.371,3.612-3.966,7.579-4.816,11.671l-6.517,0.613l-0.001,12.621
			l6.518,0.614c0.849,4.09,2.444,8.058,4.816,11.67l-4.162,5.028l8.924,8.924l5.028-4.162c3.612,2.371,7.579,3.966,11.67,4.816
			l0.614,6.518l12.621-0.001l0.614-6.517c4.092-0.85,8.058-2.445,11.671-4.816l5.028,4.162l8.925-8.924l-4.162-5.028
			c2.371-3.612,3.966-7.579,4.816-11.67l6.516-0.614l0.001-12.621l-6.517-0.614c-0.85-4.091-2.445-8.058-4.816-11.67l4.162-5.028
			l-8.924-8.924l-5.028,4.162c-3.612-2.372-7.58-3.967-11.67-4.817l-0.614-6.517l-12.621,0.001l-0.614,6.517
			c-4.091,0.85-8.058,2.444-11.67,4.816l-5.028-4.162l-8.925,8.925L314.352,76.512z M354.351,83.493
			c6.413,6.414,6.414,16.813,0,23.227c-6.415,6.414-16.814,6.414-23.227,0c-6.414-6.414-6.414-16.813,0-23.228
			C337.538,77.08,347.936,77.079,354.351,83.493z"/>
	</g>
	<g>
		<path style="fill:#407BFF;" d="M257.924,50.894c-1.355,2.063-2.266,4.33-2.752,6.668l-3.723,0.35l0,7.211l3.724,0.351
			c0.485,2.337,1.396,4.604,2.751,6.667l-2.378,2.872l5.099,5.099l2.872-2.378c2.064,1.355,4.33,2.266,6.667,2.751l0.351,3.724
			l7.21,0l0.351-3.723c2.338-0.486,4.604-1.397,6.668-2.752l2.873,2.378l5.099-5.099l-2.378-2.873
			c1.355-2.064,2.266-4.33,2.751-6.668l3.723-0.351l0-7.21l-3.723-0.351c-0.485-2.337-1.397-4.604-2.752-6.667l2.378-2.872
			l-5.099-5.099l-2.872,2.378c-2.064-1.355-4.331-2.267-6.667-2.752l-0.351-3.724l-7.211,0.001l-0.351,3.723
			c-2.337,0.485-4.604,1.396-6.667,2.751l-2.873-2.378l-5.099,5.099L257.924,50.894z M280.776,54.882
			c3.664,3.664,3.664,9.606,0,13.27c-3.665,3.665-9.606,3.664-13.27,0c-3.665-3.665-3.665-9.606,0-13.27
			C271.17,51.218,277.111,51.218,280.776,54.882z"/>
		<path style="opacity:0.7;fill:#FFFFFF;" d="M257.924,50.894c-1.355,2.063-2.266,4.33-2.752,6.668l-3.723,0.35l0,7.211l3.724,0.351
			c0.485,2.337,1.396,4.604,2.751,6.667l-2.378,2.872l5.099,5.099l2.872-2.378c2.064,1.355,4.33,2.266,6.667,2.751l0.351,3.724
			l7.21,0l0.351-3.723c2.338-0.486,4.604-1.397,6.668-2.752l2.873,2.378l5.099-5.099l-2.378-2.873
			c1.355-2.064,2.266-4.33,2.751-6.668l3.723-0.351l0-7.21l-3.723-0.351c-0.485-2.337-1.397-4.604-2.752-6.667l2.378-2.872
			l-5.099-5.099l-2.872,2.378c-2.064-1.355-4.331-2.267-6.667-2.752l-0.351-3.724l-7.211,0.001l-0.351,3.723
			c-2.337,0.485-4.604,1.396-6.667,2.751l-2.873-2.378l-5.099,5.099L257.924,50.894z M280.776,54.882
			c3.664,3.664,3.664,9.606,0,13.27c-3.665,3.665-9.606,3.664-13.27,0c-3.665-3.665-3.665-9.606,0-13.27
			C271.17,51.218,277.111,51.218,280.776,54.882z"/>
	</g>
</g>
<g id="Device">
	<g>
		<path style="fill:#263238;" d="M547.347,408.289H152.184c-10.632,0-19.252-8.619-19.252-19.252v-263.54
			c0-10.632,8.619-19.252,19.252-19.252h395.163c10.632,0,19.252,8.619,19.252,19.252v263.54
			C566.599,399.67,557.98,408.289,547.347,408.289z"/>
		<path style="opacity:0.1;fill:#FFFFFF;" d="M559.398,359.39H142.343V121.588c0-4.218,3.419-7.637,7.637-7.637h398.156
			c6.22,0,11.262,5.042,11.262,11.262V359.39z"/>
		<path style="opacity:0.8;fill:#FFFFFF;" d="M548.014,408.289H151.355c-10.175,0-18.423-8.248-18.423-18.423V359.05h433.667v30.654
			C566.599,399.969,558.278,408.289,548.014,408.289z"/>
		<g>
			<polygon style="fill:#263238;" points="442.229,465.215 266.185,465.215 277.926,408.289 427.44,408.289 			"/>
			<polygon style="opacity:0.8;fill:#FFFFFF;" points="442.229,465.215 266.185,465.215 277.926,408.289 427.44,408.289 			"/>
			<polygon style="opacity:0.2;" points="430.417,419.752 275.471,419.752 277.926,408.289 427.44,408.289 			"/>
		</g>
	</g>
	<g>
		<path style="fill:#407BFF;" d="M103.294,197.852c-4.165,6.342-6.965,13.309-8.458,20.494l-11.445,1.077l-0.001,22.163
			l11.446,1.079c1.49,7.183,4.292,14.15,8.457,20.493l-7.31,8.829l15.672,15.672l8.829-7.309c6.343,4.164,13.309,6.965,20.494,8.457
			l1.078,11.445l22.163-0.001l1.079-11.443c7.185-1.492,14.151-4.294,20.494-8.458l8.829,7.309l15.672-15.672l-7.309-8.829
			c4.164-6.343,6.965-13.309,8.456-20.494l11.443-1.079l0.002-22.163l-11.444-1.079c-1.492-7.184-4.294-14.15-8.458-20.493
			l7.31-8.829l-15.672-15.672l-8.829,7.309c-6.343-4.165-13.31-6.967-20.493-8.458l-1.079-11.445l-22.163,0.001l-1.078,11.444
			c-7.185,1.492-14.151,4.292-20.493,8.457l-8.829-7.31l-15.673,15.673L103.294,197.852z M173.784,210.869
			c11.401,11.401,11.402,29.888,0,41.29c-11.403,11.402-29.89,11.401-41.291,0c-11.402-11.402-11.402-29.888,0-41.291
			C143.895,199.468,162.381,199.467,173.784,210.869z"/>
	</g>
	<path style="opacity:0.3;" d="M526.276,348.299H180.87c-2.275,0-4.12-1.845-4.12-4.12v-11.58h352.789v12.436
		C529.539,346.838,528.078,348.299,526.276,348.299z"/>
	<g>
		<g>
			<path style="fill:#407BFF;" d="M529.869,335.179H169.732c-3.714,0-6.725-3.011-6.725-6.724V96.222
				c0-3.714,3.011-6.725,6.725-6.725h360.136c3.714,0,6.725,3.011,6.725,6.725v232.233
				C536.593,332.169,533.583,335.179,529.869,335.179z"/>
			<path style="opacity:0.6;fill:#FFFFFF;" d="M529.869,335.179H169.732c-3.714,0-6.725-3.011-6.725-6.724V96.222
				c0-3.714,3.011-6.725,6.725-6.725h360.136c3.714,0,6.725,3.011,6.725,6.725v232.233
				C536.593,332.169,533.583,335.179,529.869,335.179z"/>
		</g>
		<path style="fill:#407BFF;" d="M536.663,109.689H163.008V94.394c0-2.704,2.192-4.896,4.896-4.896h362.138
			c3.657,0,6.621,2.964,6.621,6.621V109.689z"/>
		<path style="fill:#FFFFFF;" d="M529.681,99.096c0.518,2.739-1.837,5.096-4.577,4.578c-1.522-0.288-2.767-1.532-3.056-3.054
			c-0.521-2.741,1.838-5.101,4.579-4.58C528.149,96.33,529.393,97.575,529.681,99.096z"/>
		<path style="fill:#FFFFFF;" d="M518.628,99.096c0.519,2.74-1.838,5.097-4.577,4.578c-1.522-0.288-2.767-1.533-3.056-3.054
			c-0.52-2.74,1.838-5.099,4.578-4.579C517.096,96.329,518.34,97.574,518.628,99.096z"/>
		<path style="fill:#FFFFFF;" d="M507.576,99.096c0.519,2.739-1.837,5.096-4.576,4.578c-1.522-0.288-2.767-1.532-3.056-3.054
			c-0.521-2.741,1.837-5.1,4.578-4.58C506.043,96.329,507.288,97.574,507.576,99.096z"/>
		<rect x="195.128" y="143.88" style="fill:#263238;" width="7.682" height="7.682"/>
		<rect x="195.128" y="162.076" style="fill:#407BFF;" width="7.682" height="7.682"/>
		<rect x="195.128" y="180.273" style="fill:#263238;" width="7.682" height="7.682"/>
		<rect x="195.128" y="198.47" style="fill:#407BFF;" width="7.682" height="7.682"/>
		<rect x="195.128" y="216.667" style="fill:#263238;" width="7.682" height="7.682"/>
		<rect x="195.128" y="234.864" style="fill:#407BFF;" width="7.682" height="7.682"/>
		<rect x="195.128" y="253.061" style="fill:#263238;" width="7.682" height="7.682"/>
		<rect x="195.128" y="271.258" style="fill:#407BFF;" width="7.682" height="7.682"/>
		<rect x="195.128" y="289.454" style="fill:#263238;" width="7.682" height="7.682"/>
		<rect x="195.128" y="307.651" style="fill:#407BFF;" width="7.682" height="7.682"/>
		<rect x="239.255" y="143.88" style="fill:#407BFF;" width="34.885" height="7.682"/>
		<rect x="239.255" y="180.592" style="fill:#FFFFFF;" width="34.885" height="7.682"/>
		<rect x="239.255" y="162.076" style="fill:#407BFF;" width="79.9" height="7.682"/>
		<rect x="328.009" y="162.076" style="fill:#FFFFFF;" width="45.388" height="7.682"/>
		<rect x="239.255" y="197.027" style="fill:#407BFF;" width="79.9" height="7.682"/>
		<rect x="328.009" y="197.027" style="fill:#407BFF;" width="45.388" height="7.682"/>
		<rect x="274.878" y="216.497" style="fill:#407BFF;" width="60.362" height="7.682"/>
		<rect x="383.873" y="197.027" style="fill:#FFFFFF;" width="21.697" height="7.682"/>
		<rect x="239.255" y="253.061" style="fill:#407BFF;" width="79.9" height="7.682"/>
		<rect x="328.009" y="253.061" style="fill:#407BFF;" width="45.388" height="7.682"/>
		<rect x="318.353" y="271.641" style="fill:#407BFF;" width="81.931" height="7.682"/>
		<rect x="406.64" y="271.641" style="fill:#407BFF;" width="55.136" height="7.682"/>
		<rect x="383.873" y="253.061" style="fill:#FFFFFF;" width="21.697" height="7.682"/>
		<rect x="238.937" y="271.641" style="fill:#FFFFFF;" width="71.126" height="7.682"/>
		<rect x="344.63" y="216.497" style="fill:#FFFFFF;" width="21.697" height="7.682"/>
		<rect x="429.998" y="233.988" style="fill:#407BFF;" width="43.284" height="7.682"/>
		<rect x="478.786" y="233.988" style="fill:#407BFF;" width="20.763" height="7.682"/>
		<rect x="282.968" y="180.574" style="fill:#407BFF;" width="52.915" height="7.682"/>
		<rect x="416.618" y="197.027" style="fill:#407BFF;" width="58.64" height="7.682"/>
		<rect x="274.878" y="233.988" style="fill:#407BFF;" width="60.362" height="7.682"/>
		<rect x="344.63" y="233.988" style="fill:#407BFF;" width="77.465" height="7.682"/>
		<rect x="383.276" y="162.076" style="fill:#407BFF;" width="70.665" height="7.682"/>
		<rect x="239.255" y="289.454" style="fill:#407BFF;" width="49.678" height="7.682"/>
		<rect x="239.255" y="308.281" style="fill:#407BFF;" width="14.756" height="7.682"/>
		<g>
			<g>
				<path style="fill:#407BFF;" d="M217.882,140.58c0,23.308,0,46.615,0,69.923c0,23.141,0,46.282,0,69.424
					c0,13.152,0,26.304,0,39.456c0,1.448,2.25,1.45,2.25,0c0-23.308,0-46.615,0-69.923c0-23.141,0-46.282,0-69.424
					c0-13.152,0-26.304,0-39.456C220.132,139.132,217.882,139.13,217.882,140.58L217.882,140.58z"/>
			</g>
		</g>
		<g>
			<path style="fill:none;stroke:#407BFF;stroke-linecap:round;stroke-linejoin:round;stroke-miterlimit:10;" d="M389.547,81.788
				c16.662,0,33.324,0,49.986,0"/>
			<path style="fill:none;stroke:#407BFF;stroke-linecap:round;stroke-linejoin:round;stroke-miterlimit:10;" d="M445.319,81.788
				c4.011,0,8.022,0,12.034,0"/>
		</g>
	</g>
	<path style="fill:none;stroke:#263238;stroke-width:0.75;stroke-linecap:round;stroke-linejoin:round;stroke-miterlimit:10;" d="
		M263.373,408.289c65.321,0,130.641,0,195.962,0"/>
</g>
<g id="Speech_Bubble">
	<g>
		<g>
			<g>
				<g>
					<path style="fill:#407BFF;" d="M685.229,129.648c-8.727-6.753-21.276-5.153-28.028,3.574
						c-5.213,6.737-5.428,15.742-1.249,22.61l-1.746,5.741l6.317-0.539c0.087,0.07,0.163,0.147,0.252,0.216
						c8.727,6.753,21.275,5.152,28.028-3.574C695.556,148.95,693.956,136.401,685.229,129.648z"/>
					<path style="opacity:0.7;fill:#FFFFFF;" d="M685.229,129.648c-8.727-6.753-21.276-5.153-28.028,3.574
						c-5.213,6.737-5.428,15.742-1.249,22.61l-1.746,5.741l6.317-0.539c0.087,0.07,0.163,0.147,0.252,0.216
						c8.727,6.753,21.275,5.152,28.028-3.574C695.556,148.95,693.956,136.401,685.229,129.648z"/>
					
						<path style="fill:none;stroke:#407BFF;stroke-width:0.5;stroke-linecap:round;stroke-linejoin:round;stroke-miterlimit:10;" d="
						M687.404,128.405c5.285,3.778,8.447,10.344,8.107,16.831"/>
					
						<path style="fill:none;stroke:#407BFF;stroke-width:0.5;stroke-linecap:round;stroke-linejoin:round;stroke-miterlimit:10;" d="
						M695.25,148.206c0.022,0.99-0.164,1.985-0.541,2.901"/>
				</g>
			</g>
		</g>
		<g>
			
				<rect x="665.299" y="143.772" transform="matrix(-0.7202 0.6938 -0.6938 -0.7202 1259.5023 -217.057)" style="fill:#407BFF;" width="16.443" height="3.355"/>
			
				<rect x="665.299" y="143.772" transform="matrix(0.6938 0.7202 -0.7202 0.6938 311.0143 -440.5324)" style="fill:#407BFF;" width="16.443" height="3.355"/>
		</g>
	</g>
</g>
<g id="Character">
	<g>
		<g>
			<g>
				<path style="fill:#263238;" d="M677.935,193.313c5.347-2.562,8.539-8.973,7.362-14.784c-3.096,1.195-6.224,2.399-9.507,2.884
					c-3.283,0.485-6.782,0.197-9.665-1.447c-2.171-1.239-3.857-3.154-5.58-4.965c-1.722-1.812-3.596-3.6-5.942-4.46
					c-2.347-0.861-5.288-0.565-6.92,1.328l-3.588,5.105c2.205-0.396,4.432,1.025,5.6,2.937c1.169,1.912,1.479,4.217,1.616,6.454
					c0.137,2.236,0.131,4.512,0.762,6.662c0.807,2.751,2.621,5.123,4.777,7.013c4.785,4.195,11.509,6.174,17.757,4.965
					c6.248-1.21,11.833-5.678,14.132-11.612C685.166,193.96,681.499,193.934,677.935,193.313z"/>
			</g>
			<g>
				<g>
					<path style="fill:#263238;" d="M629.645,166.225c0,0-8.685,14.016-9.279,18.478c-3.184,2.457-5.104-2.929-4.649-10.001
						c0.373-5.789,3.695-11.895,8.81-13.906C631.712,157.972,629.645,166.225,629.645,166.225z"/>
					<g>
						<g>
							<path style="fill:#FDBBB5;" d="M641.472,190.843l-10.24,5.534l-2.102,2.075c0.502,1.542,0.91,3.12,1.014,4.624
								c0.16,1.958-1.657,3.434-3.06,4.706c-2.018,1.006,1.863,10.285,1.863,10.285l13.271-13.735
								C639.741,198.261,640.369,193.356,641.472,190.843z"/>
							<path style="opacity:0.2;" d="M630.177,203.658c2.89-1.401,6.148-3.978,6.06-7.245c-0.046-1.376-0.231-2.693-0.487-3.548
								l-6.214,6.926C629.893,201.022,629.994,201.824,630.177,203.658z"/>
							<path style="fill:#FDBBB5;" d="M645.837,176.536c-1.811,10.199-2.361,14.543-8.121,19.483
								c-8.664,7.432-20.708,3.667-21.959-6.7c-1.127-9.331,2.024-24.442,12.48-27.908
								C638.539,157.995,647.648,166.336,645.837,176.536z"/>
							<path style="fill:#263238;" d="M631.698,179.48c-0.055,0.966-0.649,1.759-1.328,1.773c-0.678,0.014-1.184-0.758-1.129-1.724
								c0.055-0.966,0.649-1.759,1.327-1.773C631.247,177.743,631.753,178.515,631.698,179.48z"/>
							<path style="fill:#263238;" d="M621.937,178.258c0,0.937-0.546,1.741-1.22,1.795c-0.674,0.054-1.222-0.663-1.222-1.6
								c0-0.937,0.546-1.74,1.22-1.794C621.389,176.604,621.936,177.32,621.937,178.258z"/>
							<path style="fill:#263238;" d="M634.599,176.296c-0.132,0.002-0.261-0.049-0.354-0.152c-1.444-1.614-3.274-1.268-3.295-1.264
								c-0.271,0.052-0.524-0.123-0.559-0.398c-0.034-0.275,0.16-0.542,0.435-0.597c0.096-0.019,2.393-0.455,4.184,1.549
								c0.178,0.2,0.152,0.521-0.059,0.717C634.849,176.246,634.722,176.294,634.599,176.296z"/>
							<path style="fill:#263238;" d="M618.743,173.42c-0.117-0.045-0.215-0.131-0.266-0.251c-0.106-0.246,0.023-0.537,0.288-0.649
								c2.659-1.129,4.632,0.056,4.715,0.108c0.234,0.144,0.291,0.446,0.126,0.675c-0.164,0.228-0.486,0.296-0.72,0.154
								c-0.077-0.047-1.621-0.944-3.735-0.047C619.013,173.468,618.866,173.468,618.743,173.42z"/>
							<path style="fill:#263238;" d="M620.042,164.079c2.396-4.424,11.473-8.204,21.466-3.34
								c14.972,5.887,6.486,30.223,2.159,25.121c-1.177-1.387-2.159-2.755-2.979-4.064c-4.928-7.871-12.039-14.137-20.613-17.703
								L620.042,164.079z"/>
							<path style="fill:#FDBBB5;" d="M648.238,185.176c-1.392,2.005-3.477,3.162-5.324,3.463c-2.778,0.452-3.813-4.041-2.654-6.688
								c1.044-2.383,3.854-3.781,6.457-3.022C649.281,179.676,649.831,182.883,648.238,185.176z"/>
							<path style="fill:#EF7878;" d="M624.907,177.6c0,0-1.933,3.712-3.95,5.957c-0.352,0.392-0.208,1.021,0.27,1.244
								c1.229,0.574,2.751,0.277,2.751,0.277L624.907,177.6z"/>
						</g>
						<path style="fill:#263238;" d="M630.776,177.733l-2.367-0.562C628.409,177.171,629.702,178.939,630.776,177.733z"/>
						<path style="fill:#263238;" d="M621.061,176.686l-2.396-0.42C619.776,177.61,620.738,177.095,621.061,176.686z"/>
					</g>
					
						<path style="opacity:0.2;fill:none;stroke:#000000;stroke-width:0.5;stroke-linecap:round;stroke-linejoin:round;stroke-miterlimit:10;" d="
						M644.625,181.397c0.889-0.293,1.767,0.328,2.019,1.063c0.305,0.889-0.273,2.893-2.977,3.401"/>
				</g>
			</g>
			<path style="fill:#263238;" d="M622.869,188.395c0.718,1.173,1.559,3.431,1.559,3.431c0.218-0.039,0.437-0.079,0.652-0.129
				c2.947-0.607,4.114-1.863,4.513-3.07c0.216-0.661,0.195-1.315,0.109-1.833c-0.093-0.601-0.296-1.008-0.296-1.008
				c-1.37,1.255-4.074,2.033-5.535,2.388C623.26,188.328,622.869,188.395,622.869,188.395z"/>
			<path style="fill:#FFFFFF;" d="M623.87,188.173l0.485,0.999c2.774-0.579,4.65-1.358,5.346-2.379
				c-0.093-0.601-0.296-1.008-0.296-1.008C628.035,187.04,625.331,187.818,623.87,188.173z"/>
			<path style="fill:#FF4B4B;" d="M625.079,191.697c2.947-0.607,4.114-1.863,4.513-3.07c-0.996,0.245-2.17,0.652-3.139,1.323
				C625.711,190.459,625.309,191.092,625.079,191.697z"/>
		</g>
		<g>
			<path style="fill:#407BFF;" d="M617.703,208.202c-4.881,2.391-8.583,6.648-10.305,11.803c-3.09,9.247-4.864,23.437-4.864,23.437
				l-15.248-14.119l-9.627,7.747c0,0,22.484,29.697,25.221,30.427c8.093,2.158,12.53-16.428,12.53-16.428l2.84-43.134
				L617.703,208.202z"/>
			<g>
				<path style="fill:#407BFF;" d="M662.262,450.129l-1.054,1.467l-2.09-0.901l-1.303,6.444l-8.817,12.316
					c0,0-3.355,0.537-0.712-6.461c0.12-0.318,0.216-0.669,0.279-1.06c0.785-4.186-0.942-12.212-0.942-12.212l4.838-6.758
					c0,0,0.505,0.008,1.363,0.149C655.827,443.45,659.836,444.427,662.262,450.129z"/>
				<path style="opacity:0.2;" d="M662.262,450.129l-1.054,1.467l-2.09-0.901l-1.303,6.444l-8.817,12.316
					c0,0-3.355,0.537-0.712-6.461c0.12-0.318,0.216-0.669,0.279-1.06c0.785-4.186-0.942-12.212-0.942-12.212l4.838-6.758
					c0,0,0.505,0.008,1.363,0.149C655.827,443.45,659.836,444.427,662.262,450.129z"/>
				<path style="fill:#EF7878;" d="M653.824,443.116c0.01,0.007,0.02,0.015,0.02,0.015c-1.625,0.174-0.199,7.388-0.854,11.435
					c-0.589,3.611-2.146,7.017-4.426,7.37c0.785-4.186-2.046-13.726-2.046-13.726l3.891-5.434
					C650.41,442.775,652.966,442.974,653.824,443.116z"/>
			</g>
			<g>
				<path style="fill:#407BFF;" d="M648.765,468.998l-1.797-0.003l-0.499-2.236l-5.946,2.706h-15.066c0,0-2.396-2.428,4.779-4.363
					c0.326-0.089,0.665-0.215,1.016-0.392c3.826-1.808,9.271-7.917,9.271-7.917h8.267c0,0,0.288,0.417,0.677,1.201
					C650.371,459.829,651.931,463.678,648.765,468.998z"/>
				<path style="fill:#FDBBB5;" d="M649.467,457.996c0,0.013,0,0.025,0,0.025c-1.092-1.227-6.059,4.161-9.697,5.995
					c-3.249,1.632-6.9,2.352-8.518,0.696c3.826-1.808,9.902-10.115,9.902-10.115l6.642,0.203
					C647.796,454.799,649.078,457.211,649.467,457.996z"/>
			</g>
			<path style="fill:#263238;" d="M633.697,391.265c-4.101-10.456-9.122-20.741-15.154-29.064
				c24.657-65.433,23.885-94.707,23.885-94.707l-29.692-0.022l-3.164,10.943c0,0-7.419,27.242-9.581,42.879l-6.197,34.767v0.098
				c-0.421,7.22,1.301,14.391,4.995,20.74c4.035,6.938,11.172,15.174,15.088,22.651c5.152,9.868,10.015,19.76,14.169,28.61
				c4.377,9.328,7.938,17.48,10.16,23.143c2.103,0.221,8.451-3.31,10.278-6.509C648.483,444.795,643.988,417.509,633.697,391.265z"
				/>
			<path style="opacity:0.2;" d="M625.406,348.832c3.617-12.022,7.667-18.873,9.507-27.802c0.016-2.084-6.91-11.006-10.437-14.6
				C624.476,306.429,620.233,323.48,625.406,348.832z"/>
			<path style="opacity:0.2;" d="M628.045,428.161c4.377,9.328,7.938,17.48,10.16,23.143c2.103,0.22,8.451-3.31,10.278-6.509
				c0,0-4.495-27.286-14.786-53.53C631.607,402.101,629.268,415.793,628.045,428.161z"/>
			<g>
				<path style="fill:#263238;" d="M620.233,268.092c0,0,11.301,72.278,12.616,88.55c0,0,6.981,78.938,5.73,98.778l15.571,0.7
					c0,0,10.473-59.787,5.177-98.155c-0.46-5.001,4.364-37.623,5.126-50.618c1.834-31.264-11.879-39.853-11.879-39.853
					L620.233,268.092z"/>
			</g>
			<polygon style="opacity:0.2;" points="639.953,269.315 642.428,308.123 664.623,305.477 664.623,301.488 			"/>
			<g>
				<path style="fill:#FFFFFF;" d="M650.69,270.285c0.868-9.845,4.363-27.887,10.383-46.835c1.958-6.162-1.363-13.118-1.363-13.118
					s-8.193-0.212-9.02-0.305c-0.907-0.106-1.84-0.199-2.773-0.278c-7.031-0.583-12.788-1.007-19.058-0.649
					c-1.577,0.093-3.194,0.225-4.784,0.358c-0.513,0.053-3.84,0.103-4.339,0.156c0,0-9.015,10.548-9.501,17.995
					c-0.263,4.161-2.273,5.951-2.05,15.902c0.039,6.758,4.944,16.603,5.391,26.104L650.69,270.285z"/>
			</g>
			<path style="fill:#407BFF;" d="M643.679,304.97l26.119-2.73l-16.549-46.368c0,0,1.371-0.464,3.737-9.341
				c1.143-4.32,2.339-8.904,3.351-12.986c1.472-5.883,2.576-10.759,2.655-12.349c0.263-4.969-5.763-12.85-5.763-12.85l-15.286-1.883
				c0,0-2.924,10.558-3.541,30.739C637.783,257.37,643.679,304.97,643.679,304.97z"/>
			<path style="fill:#407BFF;" d="M628.752,205.295c0,0-13.139,15.855-16.366,27.294c-2.122,7.523,2.063,29.197,1.575,34.931
				c-0.804,9.45-4.979,21.016-10.39,37.957l-3.579-0.508l9.858-37.497c0,0-4.561-28.255-3.348-35.325
				c1.213-7.07,11.75-24.213,11.75-24.213l4.809-0.331L628.752,205.295z"/>
			<g>
				<path style="fill:#407BFF;" d="M642.339,204.242c0,0-5.91,11.665-3.675,41.018l9.82-21.101l-3.554-5.766l4.717-9.425
					c0,0-5.045-3.245-7.165-4.961L642.339,204.242z"/>
			</g>
			<path style="opacity:0.2;" d="M655.08,244.133c0.434,1.113,1.104,1.882,1.906,2.398c1.143-4.32,2.339-8.904,3.351-12.986
				c-2.655-3.233-4.902-5.936-4.902-5.936S652.372,237.189,655.08,244.133z"/>
			<path style="fill:#407BFF;" d="M656.813,208.315c5.76-0.248,19.059,27.459,24.253,40.963c1.539,4.001-1.846,9.13-4.821,9.95
				c-6.667,1.839-40.055,3.682-40.055,3.682l-1.267-9.941l28.397-5.949l-9.085-13.702c0,0-3.4-6.911-2.765-13.321
				C652.106,213.589,656.813,208.315,656.813,208.315z"/>
			<g style="opacity:0.2;">
				<path d="M642.339,204.242c0,0-5.91,11.665-3.675,41.018l9.82-21.101l-3.554-5.766l4.717-9.425c0,0-5.045-3.245-7.165-4.961
					L642.339,204.242z"/>
			</g>
			<path style="opacity:0.2;" d="M663.32,247.022c0,0,4.206-0.652,6.877,1.573c0,0-2.879-4.607-8.045-3.336L663.32,247.022z"/>
			<path style="fill:#407BFF;" d="M612.08,245.431c0,0-2.199-6.473-1.797-12.447c0.402-5.974,0.495-10.431,0.495-10.431l6.779-5.009
				l-0.892-6.107c0,0,3.268-2.007,6.305-4.063c2.075-1.405,6.145-3.53,6.68-3.366c0,0-17.31,21.906-17.398,30.869
				C612.167,243.52,612.08,245.431,612.08,245.431z"/>
			<path style="opacity:0.3;" d="M612.08,245.431c0,0-2.199-6.473-1.797-12.447c0.402-5.974,0.495-10.431,0.495-10.431l6.779-5.009
				l-0.892-6.107c0,0,3.268-2.007,6.305-4.063c2.075-1.405,6.145-3.53,6.68-3.366c0,0-17.31,21.906-17.398,30.869
				C612.167,243.52,612.08,245.431,612.08,245.431z"/>
			<path style="opacity:0.3;" d="M609.403,264.605l-2.328-22.072v24.477C607.075,267.01,608.527,265.794,609.403,264.605z"/>
			<polygon style="opacity:0.2;" points="639.417,262.723 655.306,261.638 656.244,264.265 639.705,266.371 			"/>
			<path style="fill:#FFFFFF;" d="M625.28,209.849l4.754-7.528l3.052,3.751l7.979-4.993l1.415,2.929l-3.264,9.576
				c0,0-8.157,3.339-8.59,3.339C630.194,216.922,625.28,209.849,625.28,209.849z"/>
			<polygon style="opacity:0.3;" points="625.065,210.148 626.97,214.86 631.706,210.148 634.928,215.68 639.741,213.323 
				634.611,217.385 631.643,211.324 626.212,216.438 			"/>
		</g>
		<g>
			<path style="fill:#263238;" d="M571.977,222.692c4.358,4.732,9.122,9.044,13.931,13.282c2.457,2.073,36.558,29.889,39.075,31.882
				l3.755,3.032c1.346,1.231,3.278,1.744,5.229,1.389c2.16-0.33,3.829-2.176,3.814-4.218c0.053-1.854-0.809-3.548-2.333-4.582
				l-3.827-2.944c-2.529-1.985-36.88-29.533-39.475-31.449c-5.275-3.737-9.703-8.544-15.437-11.768
				c-1.271-0.75-3.959,0.836-4.868,2.114C571.09,220.487,571.146,221.829,571.977,222.692L571.977,222.692z"/>
		</g>
		<g style="opacity:0.3;">
			<path style="fill:#FFFFFF;" d="M571.977,222.692c4.358,4.732,9.122,9.044,13.931,13.282c2.457,2.073,36.558,29.889,39.075,31.882
				l3.755,3.032c1.346,1.231,3.278,1.744,5.229,1.389c2.16-0.33,3.829-2.176,3.814-4.218c0.053-1.854-0.809-3.548-2.333-4.582
				l-3.827-2.944c-2.529-1.985-36.88-29.533-39.475-31.449c-5.275-3.737-9.703-8.544-15.437-11.768
				c-1.271-0.75-3.959,0.836-4.868,2.114C571.09,220.487,571.146,221.829,571.977,222.692L571.977,222.692z"/>
		</g>
		<g>
			<path style="opacity:0.7;fill:#FFFFFF;enable-background:new    ;" d="M515.464,125.261
				c-22.405,8.325-36.98,30.039-36.198,53.928c0.193,6.017,1.377,11.961,3.502,17.594c10.732,28.804,42.783,43.453,71.586,32.721
				c28.804-10.732,43.453-42.783,32.721-71.587c-10.731-28.801-42.776-43.451-71.579-32.724L515.464,125.261z"/>
			<g>
				<path style="fill:#407BFF;" d="M547.82,163.453h-9.744l0.297,38.836c0,0,13.886,0.807,15.743-12.353
					C555.973,176.776,551.598,167.088,547.82,163.453z"/>
				<g>
					<path style="fill:#407BFF;" d="M560.784,154.146c0.407,1.758,0.084,3.804-0.467,5.499c-0.57,1.755-1.485,3.371-2.711,4.751
						c-2.446,2.755-6.122,4.305-9.787,4.292c-1.68-0.006-1.683-2.616,0-2.611c2.947,0.01,5.801-1.203,7.802-3.375
						c0.96-1.042,1.697-2.311,2.145-3.654c0.419-1.258,0.805-2.886,0.499-4.208C557.888,153.206,560.404,152.508,560.784,154.146
						L560.784,154.146z"/>
				</g>
				<g>
					<path style="fill:#407BFF;" d="M569.476,178.476c-5.426-2.38-11.886-1.848-16.924,1.214c-1.439,0.875-2.753-1.382-1.318-2.254
						c5.897-3.585,13.266-3.974,19.559-1.214c0.651,0.285,0.788,1.224,0.468,1.786C570.88,178.678,570.117,178.758,569.476,178.476
						L569.476,178.476z"/>
				</g>
				<g>
					<path style="fill:#407BFF;" d="M562.61,197.171c-2.326-4.922-6.788-8.59-12.086-9.867c-1.633-0.394-0.941-2.911,0.694-2.517
						c5.894,1.421,11.053,5.58,13.646,11.066c0.301,0.637,0.177,1.408-0.468,1.786C563.828,197.971,562.912,197.811,562.61,197.171
						L562.61,197.171z"/>
				</g>
				<path style="fill:#407BFF;" d="M525.771,163.453h9.744l-0.297,38.836c0,0-13.886,0.807-15.743-12.353
					C517.619,176.776,521.993,167.088,525.771,163.453z"/>
				<g>
					<path style="fill:#407BFF;" d="M515.325,154.84c-0.299,1.29,0.067,2.879,0.467,4.111c0.448,1.381,1.193,2.683,2.177,3.752
						c2.002,2.172,4.856,3.385,7.802,3.375c1.68-0.006,1.682,2.605,0,2.611c-3.665,0.012-7.341-1.537-9.787-4.292
						c-1.224-1.379-2.144-2.996-2.71-4.751c-0.548-1.697-0.874-3.739-0.467-5.499C513.187,152.51,515.704,153.203,515.325,154.84
						L515.325,154.84z"/>
				</g>
				<g>
					<path style="fill:#407BFF;" d="M502.798,176.222c6.293-2.76,13.663-2.37,19.559,1.214c1.434,0.872,0.123,3.13-1.318,2.254
						c-5.038-3.062-11.498-3.594-16.924-1.214c-0.65,0.285-1.394,0.186-1.786-0.468C502,177.457,502.154,176.504,502.798,176.222
						L502.798,176.222z"/>
				</g>
				<g>
					<path style="fill:#407BFF;" d="M508.728,195.854c2.593-5.487,7.752-9.646,13.646-11.066c1.633-0.393,2.329,2.123,0.694,2.517
						c-5.298,1.277-9.76,4.945-12.086,9.867c-0.301,0.637-1.215,0.802-1.786,0.468C508.543,197.258,508.425,196.493,508.728,195.854
						L508.728,195.854z"/>
				</g>
				<path style="fill:#407BFF;" d="M547.22,161.432c-0.074,0.221-1.257-9.644-9.963-9.644s-10.99,9.648-10.99,9.648L547.22,161.432z
					"/>
			</g>
			<path style="opacity:0.2;fill:#FFFFFF;enable-background:new    ;" d="M569.784,134.686l-43.805,95.809
				c0.822,0.158,1.61,0.316,2.432,0.442c5.263,0.805-0.005,1.577,5.263,0.805l0,0l41.048-93.315
				C571.418,133.232,574.645,138.465,569.784,134.686z"/>
			<path style="opacity:0.2;fill:#FFFFFF;enable-background:new    ;" d="M544.725,123.273l-41.113,97.518
				c5.492,6.202,4.693,3.613,12.37,6.726l44.969-98.345C553.563,125.404,553.017,123.385,544.725,123.273z"/>
			<path style="fill:#263238;" d="M594.876,155.464c-12.062-32.252-47.985-48.619-80.237-36.557
				c-32.184,12.037-48.563,47.844-36.622,80.064c11.966,32.288,47.841,48.762,80.128,36.796
				c32.288-11.966,48.762-47.841,36.796-80.128C594.92,155.579,594.898,155.521,594.876,155.464z M485.474,196.361
				c-0.012-0.031-0.023-0.062-0.035-0.093c-10.424-28.116,3.919-59.359,32.035-69.783c28.077-10.369,59.25,3.939,69.693,31.989
				c10.462,28.102-3.838,59.364-31.939,69.826c-28.102,10.462-59.364-3.838-69.826-31.94L485.474,196.361z"/>
			<path style="opacity:0.3;fill:#FFFFFF;" d="M594.876,155.464c-12.062-32.252-47.985-48.619-80.237-36.557
				c-32.184,12.037-48.563,47.844-36.622,80.064c11.966,32.288,47.841,48.762,80.128,36.796
				c32.288-11.966,48.762-47.841,36.796-80.128C594.92,155.579,594.898,155.521,594.876,155.464z M485.474,196.361
				c-0.012-0.031-0.023-0.062-0.035-0.093c-10.424-28.116,3.919-59.359,32.035-69.783c28.077-10.369,59.25,3.939,69.693,31.989
				c10.462,28.102-3.838,59.364-31.939,69.826c-28.102,10.462-59.364-3.838-69.826-31.94L485.474,196.361z"/>
		</g>
		<path style="fill:#FDBBB5;" d="M626.203,251.378l9.528,2.75l1.155,8.101c-0.915,5.168-9.933,1.222-9.933,1.222l-2.02,1.283
			c-1.64,1.041-5.541-0.105-5.876-2.03l-0.233-4.926c-0.174-1.001,1.136-2.925,1.931-3.55l3.019-2.374
			C624.462,251.313,625.365,251.136,626.203,251.378z"/>
		<g>
			<g>
				<g>
					<path style="fill:#FDBBB5;" d="M577.656,228.749c0,0,5.675-1.95,7.389-1.2c1.714,0.751-0.373,2.417-0.373,2.417
						s2.409-1.692,3.266-0.766c1.028,1.111-1.166,2.847-1.166,2.847s2.023-1.301,2.73-0.427c0.733,0.907-1.604,3.042-1.604,3.042
						s1.598-0.647,1.745,0.239c0.147,0.886-4.726,5.513-7.04,5.878c-2.315,0.365-8.027-6.104-8.983-7.772
						c-0.956-1.668-0.464-4.054,1.405-6.826L577.656,228.749L577.656,228.749z"/>
				</g>
				<g>
					<path style="opacity:0.2;" d="M584.762,230.076c-0.003,0.003-0.006,0.005-0.01,0.007l-4.341,2.749
						c-0.058,0.036-0.141,0.014-0.184-0.051c-0.043-0.065-0.03-0.15,0.027-0.185l4.34-2.749c0.058-0.037,0.141-0.014,0.184,0.051
						C584.819,229.96,584.811,230.037,584.762,230.076z"/>
				</g>
				<g>
					<path style="opacity:0.2;" d="M586.747,232.247c-0.001,0.001-0.001,0.001-0.003,0.002l-3.959,2.972
						c-0.055,0.041-0.138,0.024-0.185-0.038c-0.048-0.063-0.041-0.13,0.014-0.188l3.959-2.972c0.055-0.041,0.138-0.024,0.185,0.038
						C586.806,232.123,586.8,232.205,586.747,232.247z"/>
				</g>
				<g>
					<path style="opacity:0.2;" d="M587.855,234.878l-2.879,2.292c-0.054,0.043-0.137,0.028-0.186-0.033
						c-0.048-0.061-0.045-0.145,0.009-0.188l2.879-2.293c0.054-0.043,0.137-0.028,0.186,0.033
						C587.913,234.75,587.909,234.835,587.855,234.878z"/>
				</g>
			</g>
		</g>
	</g>
</g>
</svg>
